<svg xmlns="http://www.w3.org/2000/svg" xmlns:xlink="http://www.w3.org/1999/xlink" width="1000" zoomAndPan="magnify" viewBox="0 0 750 749.999995" height="1000" preserveAspectRatio="xMidYMid meet" version="1.0"><path fill="#fbb03b" d="M 177.699219 399.1875 C 161.496094 395.132812 152.042969 404.894531 141.09375 412.25 C 135.390625 416.304688 128.191406 418.105469 120.839844 421.257812 C 115.585938 441.976562 107.484375 450.683594 93.382812 449.332031 C 82.730469 448.433594 76.277344 441.828125 75.828125 433.71875 C 82.730469 431.917969 89.78125 431.316406 95.484375 428.316406 C 97.582031 427.113281 98.632812 417.953125 96.984375 416.753906 C 91.132812 412.550781 84.082031 408.046875 77.179688 407.59375 C 56.773438 406.09375 45.820312 423.960938 54.523438 442.726562 C 63.226562 461.496094 83.179688 468.101562 104.785156 462.847656 C 122.9375 458.640625 136.890625 447.230469 150.695312 435.519531 C 164.496094 423.808594 178 413 191.953125 402.492188 C 208.757812 389.878906 227.660156 387.625 247.613281 391.980469 C 278.222656 398.136719 304.625 413.300781 337.933594 405.042969 C 324.128906 463.597656 380.242188 504.433594 335.53125 559.085938 C 324.429688 573.347656 312.277344 586.710938 300.726562 600.523438 C 289.171875 614.335938 281.070312 628.148438 279.121094 645.714844 C 276.871094 665.535156 287.671875 684.601562 304.328125 690.15625 C 316.179688 693.910156 325.929688 690.757812 332.230469 680.847656 C 338.535156 670.9375 338.234375 656.523438 331.03125 649.917969 C 327.730469 646.917969 320.378906 644.964844 316.777344 646.765625 C 313.179688 648.566406 311.527344 655.175781 310.027344 659.976562 C 309.425781 661.929688 311.527344 664.632812 312.429688 667.183594 C 302.226562 667.335938 294.875 660.578125 293.675781 650.21875 C 292.023438 636.105469 301.925781 626.496094 319.929688 622.742188 C 326.230469 612.085938 331.78125 603.375 336.433594 594.066406 C 341.085938 584.757812 343.785156 576.5 347.386719 567.644531 C 360.886719 575.300781 359.839844 593.765625 353.535156 608.480469 C 349.484375 618.539062 350.6875 628 353.988281 638.359375 C 367.039062 674.390625 355.488281 712.976562 312.878906 714.480469 C 285.421875 714.929688 263.96875 698.113281 258.117188 670.9375 C 250.914062 640.308594 262.917969 612.234375 281.972656 588.664062 L 281.222656 584.757812 C 254.515625 584.757812 227.808594 583.558594 201.253906 585.210938 C 183.101562 586.410156 173.050781 600.074219 174.398438 615.6875 C 175.597656 628 187.753906 637.007812 199.605469 634.003906 C 206.65625 632.203125 211.90625 628 211.308594 620.042969 C 210.558594 608.78125 200.804688 607.429688 191.203125 608.03125 C 201.40625 583.859375 238.3125 599.324219 232.160156 623.042969 C 229.609375 632.203125 231.5625 638.660156 236.511719 646.015625 C 239.511719 650.21875 239.964844 656.375 241.164062 661.628906 C 243.414062 672.140625 245.515625 682.5 247.914062 694.660156 C 240.714844 696.460938 231.5625 695.5625 227.210938 685.953125 C 218.359375 666.285156 202.457031 657.726562 182.949219 651.269531 C 139.441406 639.257812 147.09375 575.902344 188.503906 567.792969 C 207.105469 564.191406 224.960938 563.289062 244.164062 561.636719 L 239.511719 554.429688 C 238.808594 553.382812 238.152344 552.300781 237.550781 551.191406 C 236.945312 550.078125 236.398438 548.941406 235.902344 547.78125 C 235.40625 546.617188 234.964844 545.433594 234.578125 544.230469 C 234.195312 543.023438 233.867188 541.804688 233.597656 540.570312 C 233.328125 539.335938 233.117188 538.089844 232.964844 536.835938 C 232.8125 535.578125 232.71875 534.320312 232.683594 533.054688 C 232.648438 531.792969 232.675781 530.527344 232.761719 529.265625 C 232.84375 528.007812 232.988281 526.75 233.191406 525.503906 C 233.394531 524.253906 233.65625 523.019531 233.976562 521.796875 C 234.296875 520.574219 234.671875 519.367188 235.105469 518.179688 C 235.539062 516.992188 236.027344 515.828125 236.570312 514.683594 C 237.113281 513.542969 237.710938 512.429688 238.355469 511.34375 C 239.003906 510.257812 239.703125 509.207031 240.449219 508.1875 C 241.195312 507.167969 241.988281 506.183594 242.828125 505.238281 C 243.667969 504.292969 244.550781 503.390625 245.476562 502.53125 C 246.398438 501.667969 247.363281 500.851562 248.363281 500.082031 C 266.667969 484.464844 299.074219 486.117188 295.324219 453.6875 C 310.328125 459.84375 314.230469 469.601562 307.328125 483.113281 C 304.175781 489.421875 303.875 493.773438 308.078125 499.929688 C 312.277344 506.085938 314.527344 512.691406 313.179688 518.398438 C 311.828125 524.101562 307.175781 533.5625 301.324219 537.617188 C 295.476562 541.667969 284.671875 539.867188 276.570312 532.8125 C 279.421875 531.308594 281.820312 531.007812 282.871094 529.507812 C 286.023438 525.152344 290.972656 520.050781 290.523438 515.84375 C 289.773438 508.1875 282.722656 505.484375 275.371094 506.988281 C 253.765625 509.839844 245.664062 535.511719 261.417969 550.675781 C 273.269531 562.539062 295.175781 565.089844 309.578125 556.382812 C 326.832031 546.023438 337.933594 522.152344 333.734375 502.183594 C 331.332031 490.773438 327.132812 479.660156 324.28125 468.25 C 320.828125 454.4375 317.980469 440.625 315.277344 428.765625 C 297.574219 424.109375 278.820312 419.757812 260.515625 414.050781 C 238.3125 406.996094 217.308594 405.34375 197.953125 421.257812 C 181 435.070312 176.5 455.941406 187.152344 474.707031 C 192.851562 484.765625 201.40625 490.621094 213.257812 489.871094 C 225.109375 489.121094 231.5625 482.515625 235.011719 472.15625 C 237.5625 464.199219 237.261719 456.238281 228.410156 452.488281 C 219.558594 448.734375 214.90625 458.640625 210.40625 465.550781 C 202.15625 455.640625 201.253906 446.480469 206.957031 438.222656 C 207.386719 437.644531 207.84375 437.089844 208.324219 436.554688 C 208.808594 436.019531 209.3125 435.507812 209.839844 435.019531 C 210.371094 434.53125 210.921875 434.066406 211.492188 433.628906 C 212.066406 433.191406 212.65625 432.78125 213.265625 432.398438 C 213.875 432.015625 214.5 431.660156 215.144531 431.335938 C 215.785156 431.011719 216.441406 430.714844 217.113281 430.453125 C 217.78125 430.1875 218.460938 429.953125 219.152344 429.75 C 219.84375 429.550781 220.542969 429.378906 221.25 429.242188 C 221.957031 429.105469 222.667969 429 223.382812 428.929688 C 224.101562 428.859375 224.820312 428.820312 225.539062 428.8125 C 226.257812 428.808594 226.976562 428.835938 227.695312 428.898438 C 228.410156 428.960938 229.125 429.054688 229.832031 429.179688 C 230.542969 429.308594 231.242188 429.464844 231.9375 429.65625 C 232.632812 429.847656 233.316406 430.074219 233.988281 430.328125 C 234.660156 430.582031 235.320312 430.867188 235.96875 431.183594 C 236.617188 431.5 237.246094 431.84375 237.863281 432.21875 C 247.613281 438.074219 255.117188 438.972656 265.46875 433.71875 C 275.820312 428.464844 282.722656 434.167969 289.171875 446.179688 C 286.023438 446.929688 282.871094 448.28125 279.871094 448.433594 C 268.617188 449.183594 262.769531 455.789062 258.71875 465.25 C 256.617188 470.351562 254.214844 475.457031 252.117188 480.414062 C 241.3125 506.238281 212.207031 522.300781 182.050781 499.328125 C 180.101562 516.746094 179.050781 533.710938 176.5 550.527344 C 172.898438 574.398438 153.996094 589.414062 129.988281 589.113281 C 113.785156 588.8125 101.785156 581.757812 94.582031 567.042969 C 92.507812 563.144531 90.808594 559.09375 89.480469 554.882812 C 85.28125 537.765625 75.828125 525.453125 59.625 517.496094 C 48.222656 511.941406 46.421875 505.785156 48.972656 495.578125 C 60.675781 497.679688 72.378906 499.03125 83.628906 502.183594 C 99.082031 506.6875 113.636719 513.59375 130.890625 512.242188 C 139.742188 511.492188 145.441406 521.402344 147.09375 530.859375 C 148.742188 540.316406 144.542969 546.925781 135.839844 553.53125 C 135.089844 542.570312 134.941406 531.761719 122.039062 531.609375 C 113.785156 531.609375 108.386719 538.066406 109.136719 545.273438 C 109.886719 552.480469 113.035156 561.789062 118.289062 564.640625 C 123.539062 567.492188 134.941406 568.09375 141.84375 565.542969 C 153.996094 561.035156 158.347656 549.175781 158.945312 536.863281 C 160.296875 510.441406 158.195312 487.320312 156.546875 459.992188 C 130.140625 480.5625 99.984375 494.226562 66.828125 483.265625 C 37.421875 473.804688 21.96875 444.679688 30.667969 416.003906 C 38.621094 390.328125 67.875 375.617188 96.53125 386.277344 C 113.636719 392.730469 128.488281 393.183594 145.144531 386.574219 C 158.347656 381.472656 168.398438 385.976562 177.699219 399.1875 Z M 177.699219 399.1875 " fill-opacity="1" fill-rule="nonzero"/><path fill="#fbb03b" d="M 210.257812 286.285156 C 215.207031 293.488281 217.457031 304.449219 228.859375 299.34375 C 237.710938 295.292969 237.414062 287.183594 234.710938 279.375 C 228.109375 260.007812 205.304688 255.957031 191.351562 271.417969 C 177.398438 286.882812 178 309.703125 191.203125 324.117188 C 221.359375 356.097656 246.414062 341.082031 281.972656 331.023438 C 293.222656 328.171875 304.625 326.371094 313.777344 324.417969 C 319.628906 303.25 325.03125 281.179688 331.78125 259.707031 C 338.535156 238.238281 332.984375 216.769531 315.730469 200.554688 C 301.476562 186.890625 276.570312 187.34375 262.167969 200.554688 C 247.765625 213.765625 251.664062 237.039062 271.019531 243.945312 C 279.421875 246.796875 287.074219 245.894531 290.671875 237.1875 C 294.273438 228.480469 288.125 224.425781 281.070312 221.421875 C 279.789062 220.746094 278.589844 219.945312 277.472656 219.019531 C 288.273438 210.761719 298.925781 210.3125 306.578125 217.371094 C 317.078125 226.976562 316.027344 240.191406 303.425781 260.308594 C 314.378906 282.078125 313.179688 289.285156 297.574219 297.992188 C 297.125 297.695312 296.074219 297.242188 296.074219 296.792969 C 295.773438 278.777344 285.722656 269.015625 269.21875 263.761719 C 235.160156 251.75 220.757812 220.972656 244.015625 190.496094 C 227.058594 188.992188 210.855469 188.09375 194.953125 185.839844 C 163.898438 181.335938 146.042969 152.058594 156.695312 124.132812 C 161.945312 110.472656 172.597656 102.964844 185.800781 99.359375 C 203.957031 94.554688 217.910156 85.847656 225.859375 67.980469 C 230.210938 58.074219 239.210938 55.070312 247.613281 57.320312 C 245.214844 70.535156 244.613281 83.597656 240.414062 95.457031 C 235.3125 109.570312 229.761719 122.480469 231.410156 138.398438 C 232.3125 147.40625 223.160156 153.5625 213.707031 155.664062 C 204.253906 157.765625 198.105469 154.613281 190.453125 144.851562 L 199.003906 144.101562 C 206.804688 143.351562 212.507812 138.246094 210.855469 131.191406 C 205.605469 115.273438 185.953125 112.121094 177.25 127.738281 C 172.148438 136.445312 172.148438 146.65625 179.050781 153.5625 C 185.953125 160.46875 194.652344 166.472656 203.054688 167.074219 C 229.160156 168.875 255.566406 167.671875 282.273438 166.023438 C 260.066406 136.894531 246.5625 99.210938 264.117188 65.277344 C 275.820312 42.757812 303.726562 31.796875 328.632812 40.207031 C 353.535156 48.613281 365.539062 76.089844 358.1875 101.613281 C 349.1875 119.929688 349.785156 137.945312 357.136719 156.863281 C 361.339844 167.523438 356.238281 177.28125 347.535156 184.941406 C 343.785156 176.082031 340.484375 166.472656 335.984375 157.464844 C 331.480469 148.457031 326.230469 140.046875 319.929688 129.238281 C 301.777344 125.035156 292.472656 116.328125 293.523438 102.664062 C 294.425781 92.304688 301.324219 85.546875 312.429688 84.648438 C 311.527344 87.648438 309.277344 90.652344 309.878906 92.753906 C 311.527344 97.558594 313.628906 104.015625 317.378906 105.667969 C 321.128906 107.316406 328.179688 104.914062 331.332031 101.761719 C 338.683594 94.257812 337.933594 79.09375 331.332031 69.933594 C 324.730469 60.773438 314.527344 58.074219 302.828125 62.578125 C 286.472656 68.882812 276.871094 87.347656 279.121094 107.019531 C 281.222656 123.382812 289.023438 136.894531 299.074219 149.355469 C 309.128906 161.816406 323.53125 177.882812 335.234375 192.445312 C 352.9375 214.515625 358.039062 238.988281 349.1875 266.164062 C 346.183594 275.625 342.734375 285.082031 341.085938 294.839844 C 338.234375 311.207031 336.433594 327.722656 334.03125 345.589844 C 279.570312 334.628906 237.414062 388.976562 182.652344 343.484375 C 168.097656 331.625 154.144531 319.011719 139.441406 307.300781 C 124.738281 295.59375 108.835938 286.882812 89.179688 287.933594 C 69.527344 288.984375 56.175781 299.945312 52.273438 315.859375 C 49.574219 326.820312 53.773438 336.429688 63.675781 341.984375 C 73.578125 347.539062 88.882812 346.1875 94.582031 338.832031 C 96.984375 335.679688 98.332031 329.523438 96.832031 326.21875 C 95.332031 322.917969 89.929688 320.214844 85.878906 319.011719 C 81.828125 317.8125 78.980469 320.214844 75.527344 321.117188 C 76.429688 310.304688 83.03125 303.550781 93.230469 302.648438 C 107.636719 301.445312 115.886719 310.15625 120.238281 328.921875 C 137.933594 339.945312 156.488281 349.253906 175.898438 356.847656 C 167.046875 368.257812 151.445312 369.308594 137.792969 363.304688 C 124.140625 357.300781 114.835938 357.898438 102.835938 363.753906 C 73.128906 378.769531 31.117188 361.351562 28.71875 326.21875 C 26.617188 304.148438 36.96875 282.832031 55.574219 273.371094 C 91.433594 255.054688 126.6875 268.265625 156.09375 291.988281 C 158.796875 262.863281 161.796875 235.085938 157.597656 207.460938 C 155.046875 190.796875 140.640625 181.035156 125.789062 183.589844 C 113.636719 185.691406 104.785156 199.203125 109.886719 209.863281 C 112.136719 214.515625 119.039062 219.921875 123.386719 219.621094 C 127.738281 219.320312 131.492188 212.113281 134.941406 207.460938 C 136.140625 205.960938 135.390625 202.804688 135.390625 199.953125 C 160.597656 213.464844 141.242188 248.75 117.386719 240.792969 C 110.636719 238.390625 106.433594 239.441406 100.582031 243.195312 C 94.734375 246.945312 87.230469 248.449219 80.179688 250.25 C 70.277344 252.652344 60.074219 254.453125 49.421875 256.707031 C 45.972656 249.050781 47.023438 241.089844 56.925781 236.285156 C 76.277344 227.128906 85.582031 211.816406 91.582031 191.996094 C 104.933594 146.054688 169.898438 157.914062 176.351562 200.253906 C 179.199219 217.96875 180.101562 234.335938 181.449219 252.800781 C 183.402344 251.75 184.902344 251.152344 186.25 250.25 C 207.707031 235.085938 233.210938 240.191406 247.015625 262.710938 C 250.898438 269.003906 254.148438 275.613281 256.765625 282.53125 C 261.566406 294.691406 268.320312 303.847656 282.871094 303.847656 C 284.972656 303.847656 287.074219 304.902344 289.171875 305.351562 C 283.023438 319.164062 273.121094 323.21875 259.917969 316.160156 C 253.464844 312.859375 249.414062 313.007812 243.265625 317.0625 C 240.324219 318.90625 237.179688 320.289062 233.832031 321.210938 C 230.488281 322.128906 227.078125 322.550781 223.609375 322.464844 C 203.207031 320.964844 197.503906 299.796875 210.257812 286.285156 Z M 210.257812 286.285156 " fill-opacity="1" fill-rule="nonzero"/><path fill="#fbb03b" d="M 396.445312 405.191406 C 423.300781 411.648438 446.855469 404.140625 469.960938 395.734375 C 536.726562 372.011719 566.730469 429.066406 616.992188 458.042969 C 636.195312 469.601562 659.601562 465.847656 673.105469 452.035156 C 683.007812 441.828125 686.007812 428.316406 680.15625 418.855469 C 674.304688 409.398438 660.5 404.742188 647.898438 408.644531 C 639.945312 411.046875 634.097656 415.703125 636.945312 424.710938 C 640.546875 436.273438 649.550781 433.570312 658.851562 430.714844 C 658.25 441.976562 651.347656 448.734375 640.398438 449.332031 C 625.996094 450.234375 618.191406 441.828125 613.992188 423.210938 C 603.039062 416.753906 594.039062 410.898438 584.585938 406.242188 C 575.132812 401.589844 567.632812 399.039062 559.230469 395.734375 C 568.230469 381.621094 585.1875 383.273438 599.738281 389.878906 C 602.089844 390.921875 604.527344 391.691406 607.050781 392.183594 C 609.574219 392.679688 612.125 392.886719 614.695312 392.808594 C 617.265625 392.730469 619.796875 392.367188 622.285156 391.722656 C 624.773438 391.074219 627.160156 390.160156 629.445312 388.976562 C 662.300781 372.3125 707.160156 391.230469 705.359375 431.316406 C 705.210938 453.839844 696.058594 471.554688 674.753906 480.5625 C 643.546875 493.773438 615.042969 485.96875 588.335938 467.652344 C 585.9375 466 583.683594 464.046875 581.285156 462.246094 L 578.433594 461.496094 C 575.582031 489.121094 573.933594 516.894531 576.933594 544.371094 C 579.035156 559.984375 591.1875 569.144531 604.988281 568.84375 C 627.792969 568.09375 633.644531 539.566406 612.191406 531.910156 C 600.9375 529.957031 598.089844 543.320312 598.988281 552.929688 C 587.585938 544.972656 584.433594 534.613281 589.535156 523.953125 C 594.636719 513.292969 605.890625 507.585938 617.140625 511.492188 C 624.042969 513.894531 628.542969 512.390625 634.097656 508.636719 C 639.648438 504.886719 645.347656 503.382812 651.347656 502.03125 C 662.300781 499.480469 673.554688 497.828125 686.15625 495.578125 C 689.007812 503.082031 686.308594 511.941406 677.003906 515.996094 C 657.652344 524.703125 649.097656 540.316406 642.796875 559.386719 C 630.644531 604.277344 565.980469 595.871094 558.480469 553.378906 C 555.328125 536.113281 554.277344 518.398438 552.328125 500.53125 C 552.027344 500.53125 550.679688 500.230469 550.078125 500.832031 C 531.023438 518.097656 498.316406 512.542969 484.363281 484.617188 C 476.414062 469.753906 473.414062 448.433594 452.558594 447.984375 C 450.15625 447.984375 447.757812 446.933594 445.207031 446.332031 C 452.257812 432.367188 462.007812 428.613281 475.0625 435.972656 C 481.0625 439.425781 484.964844 439.125 490.664062 435.222656 C 495.671875 432.046875 501.125 430.144531 507.019531 429.515625 C 516.019531 428.464844 523.972656 431.917969 528.472656 440.023438 C 532.972656 448.132812 531.023438 457.742188 524.574219 466.75 C 522.921875 463.746094 522.171875 460.746094 520.222656 459.394531 C 518.273438 458.042969 509.417969 451.285156 507.46875 452.488281 C 503.117188 455.339844 498.316406 461.796875 498.316406 466.601562 C 498.316406 487.769531 526.074219 497.980469 540.777344 482.816406 C 555.480469 467.652344 557.28125 444.980469 544.527344 429.515625 C 514.070312 393.03125 481.214844 413.601562 443.855469 423.359375 C 435.605469 425.460938 426.753906 425.761719 420.449219 426.664062 C 415.5 444.980469 411.148438 463.597656 405.449219 481.914062 C 398.546875 503.984375 396.144531 525.003906 412.050781 544.671875 C 427.953125 564.339844 454.957031 567.492188 472.363281 551.128906 C 487.363281 537.015625 483.3125 515.996094 464.261719 508.339844 C 454.957031 504.585938 446.554688 506.988281 443.554688 514.792969 C 439.355469 525.753906 450.007812 528.007812 456.757812 532.511719 C 446.855469 541.367188 436.054688 542.121094 427.953125 535.0625 C 419.851562 528.007812 418.652344 510.140625 430.804688 492.125 C 420.300781 469.003906 421.351562 462.847656 436.65625 454.289062 C 437.253906 455.039062 438.453125 455.941406 438.453125 456.839844 C 438.003906 476.058594 451.507812 482.515625 466.359375 489.121094 C 497.867188 502.632812 514.21875 527.554688 490.367188 561.335938 C 507.019531 562.839844 523.371094 563.738281 539.425781 566.140625 C 568.683594 570.34375 586.535156 596.921875 579.183594 623.644531 C 575.132812 638.507812 564.78125 647.816406 550.679688 651.871094 C 531.175781 657.277344 515.871094 666.433594 507.320312 685.800781 C 503.269531 694.960938 494.265625 696.761719 486.914062 694.8125 C 489.316406 681.597656 490.214844 668.535156 494.117188 656.523438 C 498.015625 644.515625 504.917969 630.550781 502.816406 614.785156 C 501.46875 605.027344 511.070312 597.972656 521.570312 596.320312 C 532.074219 594.667969 538.675781 597.972656 544.527344 607.578125 C 540.777344 607.730469 537.625 606.980469 535.976562 608.179688 C 531.324219 611.484375 525.171875 614.785156 523.523438 619.441406 C 520.820312 626.949219 526.972656 631.601562 533.875 633.703125 C 549.027344 638.207031 563.730469 623.496094 559.679688 607.730469 C 555.628906 591.964844 546.476562 585.660156 532.972656 585.058594 C 506.417969 583.859375 479.714844 584.757812 453.757812 584.757812 C 461.859375 602.925781 470.710938 618.390625 475.210938 634.90625 C 486.613281 679.796875 455.859375 726.039062 407.398438 712.375 C 380.542969 704.121094 366.289062 673.492188 378.292969 643.613281 C 384.292969 628.597656 384.441406 615.835938 378.59375 601.273438 C 372.742188 586.710938 376.042969 576.652344 385.792969 568.695312 C 394.496094 585.808594 403.496094 603.074219 413.25 621.992188 C 435.753906 630.101562 442.207031 636.707031 439.953125 651.421875 C 438.605469 661.328125 432.902344 666.585938 423 667.335938 C 422.703125 667.035156 422.25 666.734375 422.402344 666.433594 C 425.25 652.621094 422.402344 645.566406 413.550781 644.664062 C 404.699219 643.761719 398.996094 651.871094 398.246094 664.03125 C 396.296875 687.152344 419.550781 699.914062 438.003906 686.101562 C 453.757812 675.59375 460.960938 653.671875 452.40625 633.855469 C 446.105469 619.289062 436.355469 606.078125 426.902344 593.015625 C 417.449219 579.953125 403.648438 564.488281 392.84375 549.777344 C 382.042969 535.0625 379.34375 516.746094 382.792969 498.128906 C 388.042969 466.75 405.148438 439.425781 396.445312 405.191406 Z M 396.445312 405.191406 " fill-opacity="1" fill-rule="nonzero"/><path fill="#fbb03b" d="M 422.550781 84.195312 C 434.855469 86.449219 440.40625 93.355469 440.253906 104.765625 C 440.105469 118.578125 432.003906 125.636719 413.398438 129.386719 L 385.34375 183.738281 C 374.390625 176.832031 374.242188 158.066406 379.941406 146.355469 C 385.644531 134.644531 386.09375 123.683594 379.34375 112.574219 C 361.1875 68.730469 394.046875 24.292969 441.304688 40.65625 C 463.660156 48.011719 474.613281 65.429688 477.164062 88.101562 C 481.0625 116.777344 470.261719 142.148438 452.109375 163.921875 L 452.707031 167.523438 C 479.261719 167.523438 505.96875 168.273438 532.675781 167.222656 C 546.027344 166.621094 555.78125 158.363281 559.679688 144.703125 C 559.902344 143.902344 560.078125 143.09375 560.203125 142.277344 C 560.332031 141.457031 560.410156 140.632812 560.441406 139.804688 C 560.476562 138.976562 560.457031 138.148438 560.394531 137.320312 C 560.328125 136.496094 560.214844 135.675781 560.054688 134.863281 C 559.894531 134.046875 559.6875 133.246094 559.433594 132.457031 C 559.179688 131.667969 558.878906 130.898438 558.535156 130.144531 C 558.191406 129.390625 557.808594 128.65625 557.378906 127.949219 C 556.949219 127.238281 556.480469 126.558594 555.972656 125.902344 C 555.460938 125.25 554.917969 124.625 554.335938 124.035156 C 553.753906 123.445312 553.140625 122.890625 552.496094 122.371094 C 551.851562 121.851562 551.175781 121.371094 550.472656 120.929688 C 549.773438 120.488281 549.046875 120.09375 548.296875 119.734375 C 547.550781 119.378906 546.785156 119.070312 546 118.800781 C 545.214844 118.535156 544.417969 118.316406 543.609375 118.144531 C 542.796875 117.96875 541.980469 117.84375 541.15625 117.765625 C 540.332031 117.6875 539.503906 117.660156 538.675781 117.675781 C 529.523438 117.828125 522.472656 123.683594 522.921875 131.191406 C 523.523438 143.5 532.972656 144.703125 543.328125 144.101562 C 531.324219 168.875 495.464844 151.308594 502.519531 127.738281 C 505.21875 119.78125 503.570312 114.523438 498.917969 107.917969 C 494.265625 101.3125 494.566406 95.757812 493.214844 89.300781 C 490.816406 79.390625 488.867188 69.183594 486.765625 58.523438 C 494.117188 55.070312 502.96875 56.570312 507.621094 66.78125 C 516.171875 85.097656 530.425781 94.257812 549.179688 99.8125 C 596.738281 112.722656 587.4375 177.734375 543.027344 185.089844 C 525.324219 187.941406 508.070312 188.542969 490.066406 190.042969 C 514.371094 225.925781 496.96875 252.953125 459.910156 266.164062 C 447.605469 270.667969 438.90625 278.027344 439.054688 292.589844 C 439.203125 294.242188 438.003906 295.890625 437.554688 297.695312 C 421.199219 290.335938 419.851562 281.179688 430.953125 260.609375 C 418.949219 240.941406 417.75 226.378906 427.351562 217.519531 C 436.953125 208.660156 445.355469 210.613281 456.910156 219.019531 C 454.507812 220.371094 451.808594 221.125 450.457031 222.925781 C 449.105469 224.726562 442.355469 233.734375 443.554688 235.6875 C 446.554688 240.039062 452.707031 244.695312 457.660156 244.695312 C 477.914062 245.144531 488.867188 219.472656 475.511719 204.15625 C 462.160156 188.84375 437.855469 185.539062 421.652344 198.300781 C 405.449219 211.0625 396.597656 229.230469 400.945312 250.851562 C 403.199219 262.710938 408 274.121094 410.847656 285.832031 C 413.699219 297.542969 416.550781 312.105469 418.949219 323.667969 C 432.304688 326.820312 446.707031 330.125 461.109375 333.726562 C 494.117188 342.886719 516.621094 353.546875 543.328125 323.96875 C 556.53125 309.105469 556.078125 286.285156 542.875 271.417969 C 542.160156 270.515625 541.382812 269.664062 540.550781 268.867188 C 539.714844 268.070312 538.832031 267.335938 537.894531 266.660156 C 536.960938 265.984375 535.984375 265.378906 534.964844 264.839844 C 533.945312 264.296875 532.894531 263.832031 531.808594 263.4375 C 530.726562 263.042969 529.621094 262.726562 528.492188 262.484375 C 527.363281 262.242188 526.226562 262.078125 525.074219 261.996094 C 523.925781 261.910156 522.773438 261.90625 521.625 261.980469 C 520.472656 262.054688 519.332031 262.207031 518.203125 262.441406 C 517.074219 262.671875 515.964844 262.980469 514.878906 263.367188 C 513.792969 263.753906 512.734375 264.210938 511.710938 264.742188 C 510.6875 265.273438 509.707031 265.871094 508.765625 266.539062 C 507.824219 267.207031 506.933594 267.933594 506.09375 268.726562 C 505.253906 269.515625 504.46875 270.359375 503.746094 271.257812 C 503.023438 272.15625 502.363281 273.097656 501.769531 274.089844 C 501.175781 275.078125 500.652344 276.101562 500.199219 277.164062 C 499.746094 278.226562 499.371094 279.3125 499.066406 280.429688 C 496.367188 288.386719 497.417969 295.441406 505.367188 299.195312 C 517.070312 304.601562 519.320312 292.890625 524.273438 285.230469 C 531.472656 294.539062 533.875 303.550781 527.722656 313.308594 C 527.332031 313.882812 526.917969 314.441406 526.476562 314.980469 C 526.035156 315.515625 525.570312 316.03125 525.082031 316.527344 C 524.59375 317.023438 524.082031 317.492188 523.550781 317.941406 C 523.015625 318.390625 522.464844 318.8125 521.894531 319.207031 C 521.324219 319.605469 520.734375 319.976562 520.128906 320.316406 C 519.523438 320.660156 518.90625 320.976562 518.269531 321.261719 C 517.636719 321.546875 516.992188 321.800781 516.332031 322.027344 C 515.675781 322.253906 515.007812 322.449219 514.332031 322.613281 C 513.660156 322.777344 512.976562 322.914062 512.289062 323.015625 C 511.601562 323.117188 510.910156 323.1875 510.214844 323.222656 C 509.519531 323.261719 508.828125 323.269531 508.132812 323.242188 C 507.4375 323.21875 506.746094 323.160156 506.054688 323.070312 C 505.367188 322.980469 504.683594 322.859375 504.003906 322.707031 C 503.324219 322.554688 502.65625 322.371094 501.992188 322.15625 C 501.332031 321.941406 500.683594 321.699219 500.042969 321.425781 C 499.402344 321.148438 498.777344 320.847656 498.167969 320.515625 C 487.816406 314.960938 479.5625 313.007812 468.160156 318.414062 C 456.757812 323.816406 450.15625 316.160156 444.90625 307.152344 C 445.65625 306.25 446.105469 305.199219 446.554688 305.199219 C 466.660156 305.050781 474.761719 291.539062 480.914062 275.023438 C 492.164062 243.34375 525.472656 229.832031 552.777344 253.554688 C 554.128906 237.1875 554.730469 222.324219 556.53125 207.460938 C 560.429688 176.53125 584.734375 157.765625 612.492188 163.621094 C 625.542969 166.472656 635.144531 173.828125 640.546875 186.289062 C 642.535156 190.636719 644.234375 195.089844 645.648438 199.652344 C 649.847656 214.96875 658.25 226.679688 673.253906 233.433594 C 683.457031 238.089844 689.457031 246.046875 686.308594 256.554688 L 647 249.648438 C 645.148438 249.417969 643.398438 248.867188 641.746094 247.996094 C 632.296875 241.691406 623.292969 237.789062 610.839844 241.242188 C 600.9375 243.945312 591.035156 234.636719 588.1875 224.277344 C 585.335938 213.917969 588.9375 205.660156 598.6875 199.503906 C 599.070312 200.101562 599.320312 200.753906 599.4375 201.453125 C 598.238281 208.960938 599.136719 216.320312 607.238281 218.722656 C 611.289062 220.070312 619.542969 218.722656 620.59375 216.167969 C 623.445312 210.011719 625.242188 201.90625 623.59375 195.75 C 619.84375 182.988281 601.6875 178.484375 590.285156 187.492188 C 584.433594 192.144531 578.734375 199.804688 577.234375 207.011719 C 571.234375 234.636719 576.332031 262.410156 578.285156 289.886719 C 609.191406 272.171875 636.046875 255.503906 672.054688 270.066406 C 731.917969 295.140625 706.261719 387.175781 639.648438 366.007812 C 621.492188 359.402344 605.289062 359.101562 587.585938 365.707031 C 575.882812 370.0625 566.429688 365.707031 559.679688 357.449219 L 613.542969 330.125 C 616.242188 317.664062 620.292969 301.898438 640.847656 302.796875 C 651.347656 303.25 657.949219 309.554688 660.203125 320.363281 C 653.449219 322.464844 645.949219 320.515625 639.496094 323.21875 C 637.394531 323.96875 635.597656 332.828125 637.394531 334.628906 C 639.511719 337.011719 641.925781 339.050781 644.628906 340.734375 C 647.335938 342.421875 650.226562 343.6875 653.300781 344.535156 C 678.957031 349.492188 692.15625 322.015625 676.253906 303.550781 C 663.351562 286.734375 638.296875 282.078125 615.941406 294.242188 C 589.835938 309.554688 567.332031 331.175781 543.027344 349.339844 C 524.871094 362.855469 504.46875 364.503906 483.015625 359.402344 C 454.207031 352.644531 428.253906 338.980469 396.445312 347.089844 C 410.546875 296.042969 359.089844 247.847656 393.144531 201.753906 C 404.398438 186.742188 416.25 172.179688 428.253906 157.914062 C 440.253906 143.652344 453.609375 126.085938 455.558594 104.765625 C 457.507812 83.445312 446.257812 67.382812 429.453125 61.824219 C 418.5 58.222656 408.148438 61.675781 402.445312 70.683594 C 396.746094 79.691406 396.746094 97.257812 404.398438 103.714844 C 412.050781 110.171875 420.300781 105.816406 424.050781 95.757812 C 424.953125 92.753906 423.152344 88.851562 422.550781 84.195312 Z M 422.550781 84.195312 " fill-opacity="1" fill-rule="nonzero"/><path fill="#fbba3b" d="M 360.738281 399.039062 L 343.933594 381.171875 C 334.632812 387.027344 321.429688 393.933594 309.578125 395.433594 C 274.171875 401.589844 274.921875 349.792969 309.277344 356.847656 C 321.582031 360 333.28125 365.105469 345.285156 369.609375 L 361.339844 352.644531 C 358.335938 346.339844 353.6875 338.832031 350.835938 330.722656 C 348.800781 324.375 347.902344 317.871094 348.136719 311.207031 C 348.4375 299.945312 357.738281 290.488281 367.191406 290.488281 C 376.640625 290.488281 386.09375 300.546875 386.84375 311.207031 C 387.894531 327.269531 380.242188 340.332031 372.140625 352.644531 L 390.292969 369.460938 C 407.097656 363.753906 436.203125 343.9375 448.957031 366.90625 C 456.160156 385.226562 442.355469 400.839844 421.050781 394.683594 C 410.25 391.679688 400.046875 386.425781 392.84375 383.574219 L 377.992188 403.992188 L 372.742188 398.136719 C 377.09375 407.746094 382.191406 417.054688 385.34375 427.113281 C 389.695312 440.625 386.542969 452.9375 376.792969 457.441406 C 371.539062 459.992188 362.6875 460.144531 357.738281 457.441406 C 346.183594 451.285156 346.035156 439.125 349.035156 428.164062 C 352.035156 417.203125 356.835938 408.496094 360.738281 399.039062 Z M 360.738281 399.039062 " fill-opacity="1" fill-rule="nonzero"/><path fill="#fbba3b" d="M 619.542969 616.136719 C 614.890625 619.441406 610.539062 624.695312 605.441406 625.746094 C 597.9375 627.25 592.835938 621.691406 592.535156 614.1875 C 592.238281 606.679688 597.488281 600.824219 604.691406 601.726562 C 611.890625 602.625 614.441406 607.578125 619.394531 610.734375 C 619.394531 612.535156 619.394531 614.335938 619.542969 616.136719 Z M 619.542969 616.136719 " fill-opacity="1" fill-rule="nonzero"/><path fill="#fbba3b" d="M 618.941406 142.601562 C 613.691406 145.304688 608.589844 149.957031 603.488281 150.109375 C 598.386719 150.257812 591.488281 144.253906 592.6875 136.59375 C 593.886719 128.9375 599.289062 123.984375 606.640625 126.234375 C 611.589844 127.738281 615.34375 133.59375 619.691406 137.347656 Z M 618.941406 142.601562 " fill-opacity="1" fill-rule="nonzero"/><path fill="#fbba3b" d="M 43.273438 372.460938 C 42.371094 384.023438 38.171875 388.378906 30.367188 388.226562 C 22.566406 388.078125 17.917969 383.421875 18.066406 375.765625 C 18.214844 368.109375 23.769531 362.703125 30.820312 363.753906 C 37.871094 364.804688 40.269531 370.210938 43.273438 372.460938 Z M 43.273438 372.460938 " fill-opacity="1" fill-rule="nonzero"/><path fill="#fbba3b" d="M 363.890625 53.71875 C 360.886719 48.914062 355.789062 44.257812 355.1875 39.003906 C 354.585938 33.75 360.136719 26.84375 367.640625 27.144531 C 375.140625 27.445312 380.691406 32.847656 379.191406 40.054688 C 377.691406 47.261719 372.742188 49.363281 369.289062 54.019531 Z M 363.890625 53.71875 " fill-opacity="1" fill-rule="nonzero"/><path fill="#fbba3b" d="M 716.3125 372.164062 C 715.5625 384.023438 711.210938 388.226562 703.410156 388.226562 C 695.609375 388.226562 691.558594 383.722656 691.257812 376.515625 C 690.957031 369.308594 696.058594 363.003906 703.261719 363.753906 C 710.460938 364.503906 713.011719 369.910156 716.3125 372.164062 Z M 716.3125 372.164062 " fill-opacity="1" fill-rule="nonzero"/><path fill="#fbba3b" d="M 354.285156 715.828125 C 355.488281 704.570312 359.539062 700.214844 367.339844 700.214844 C 375.140625 700.214844 379.792969 705.019531 379.492188 712.675781 C 379.191406 720.335938 374.242188 725.890625 367.039062 724.6875 C 359.839844 723.488281 357.585938 718.230469 354.285156 715.828125 Z M 354.285156 715.828125 " fill-opacity="1" fill-rule="nonzero"/><path fill="#fbba3b" d="M 141.992188 609.980469 C 140.941406 621.542969 136.890625 626.199219 129.089844 626.046875 C 121.289062 625.898438 117.085938 621.691406 116.789062 614.488281 C 116.488281 607.28125 121.4375 600.972656 128.789062 601.875 C 136.140625 602.777344 138.542969 607.730469 141.992188 609.980469 Z M 141.992188 609.980469 " fill-opacity="1" fill-rule="nonzero"/><path fill="#fbba3b" d="M 141.691406 137.644531 C 140.042969 156.5625 121.738281 152.058594 117.238281 138.546875 C 115.585938 131.191406 121.289062 126.085938 129.089844 125.785156 C 136.890625 125.484375 140.640625 130.738281 141.691406 137.644531 Z M 141.691406 137.644531 " fill-opacity="1" fill-rule="nonzero"/></svg>