<svg xmlns="http://www.w3.org/2000/svg" xmlns:xlink="http://www.w3.org/1999/xlink" width="1000" zoomAndPan="magnify" viewBox="0 0 750 749.999995" height="1000" preserveAspectRatio="xMidYMid meet" version="1.0"><path fill="#fbb03b" d="M 615.441406 299.875 C 632.710938 295.519531 645.625 300.183594 655.273438 313.867188 C 679.859375 279.042969 663.832031 219.1875 625.863281 202.082031 C 608.125 194.15625 586.34375 198.042969 572.960938 211.878906 C 561.914062 223.382812 559.734375 241.730469 567.515625 257.742188 C 572.804688 268.46875 584.164062 275.15625 594.746094 270.957031 C 600.347656 268.625 606.726562 262.09375 607.972656 256.34375 C 609.214844 250.589844 602.835938 244.527344 594.898438 244.0625 C 593.035156 243.9375 591.222656 243.574219 589.453125 242.972656 C 591.320312 224.316406 611.859375 214.988281 628.042969 225.09375 C 644.226562 235.199219 649.359375 262.71875 633.644531 277.796875 C 623.996094 286.96875 611.238281 292.878906 599.257812 300.652344 C 600.5 311.691406 601.902344 324.90625 603.457031 338.277344 L 599.257812 340.917969 L 568.292969 320.398438 C 560.824219 330.035156 550.398438 339.832031 535.304688 340.140625 C 526.746094 340.296875 518.03125 336.875 510.410156 335.320312 C 538.417969 301.429688 554.445312 293.5 539.507812 247.171875 C 519.277344 267.226562 498.269531 273.753906 478.199219 249.035156 C 539.195312 243.285156 523.324219 174.875 601.433594 169.125 C 592.566406 154.199219 586.1875 139.273438 595.054688 123.726562 C 598.789062 117.199219 605.015625 112.066406 612.015625 104.292969 C 613.882812 110.667969 615.285156 113.3125 615.441406 116.109375 C 617.152344 140.828125 629.445312 159.953125 646.558594 176.742188 C 687.171875 214.523438 701.175781 244.839844 694.640625 300.496094 C 724.828125 312.3125 732.140625 325.527344 720.160156 349.3125 C 708.335938 339.519531 694.796875 332.835938 679.703125 339.207031 C 671.300781 342.628906 664.296875 349.160156 656.828125 354.289062 L 658.542969 356.464844 C 668.1875 357.554688 678.304688 357.085938 687.015625 360.351562 C 693.242188 362.527344 697.597656 369.835938 702.734375 374.964844 C 697.441406 379.785156 692.773438 386.9375 686.394531 389.269531 C 680.015625 391.601562 667.878906 391.445312 658.851562 392.378906 C 669.746094 413.832031 688.105469 416.632812 720.472656 400.617188 C 732.761719 422.230469 723.117188 440.574219 696.042969 446.949219 C 698.0625 490.945312 694.019531 524.371094 661.496094 557.175781 C 654.808594 563.863281 648.273438 570.703125 641.582031 577.542969 C 626.953125 592.46875 617.460938 609.882812 615.59375 631.027344 C 615.226562 634.007812 614.707031 636.960938 614.039062 639.886719 C 591.320312 636.621094 586.34375 615.011719 600.347656 579.71875 C 576.226562 577.386719 553.976562 568.683594 539.503906 548.160156 C 525.035156 527.636719 509.785156 500.742188 478.664062 502.140625 C 488.3125 478.820312 509.941406 478.976562 539.351562 500.742188 C 555.222656 457.988281 537.328125 446.171875 512.121094 415.234375 C 527.992188 401.863281 548.21875 406.214844 568.601562 428.605469 L 598.789062 407.925781 L 603.300781 410.722656 C 601.902344 423.628906 600.65625 436.378906 599.257812 449.746094 C 607.035156 453.632812 616.21875 457.210938 624.308594 462.496094 C 643.292969 474.933594 648.582031 495.765625 638.3125 513.179688 C 631.777344 524.375 619.953125 530.125 608.28125 527.171875 C 596.613281 524.21875 590.230469 518.15625 588.363281 505.871094 C 591.011719 505.40625 592.878906 504.785156 594.589844 504.628906 C 602.679688 504.316406 609.527344 500.273438 607.972656 492.65625 C 606.414062 485.039062 600.5 480.0625 594.898438 477.886719 C 584.941406 474.3125 575.292969 478.507812 569.226562 487.835938 C 568.808594 488.476562 568.40625 489.128906 568.023438 489.789062 C 567.640625 490.453125 567.28125 491.125 566.9375 491.808594 C 566.59375 492.492188 566.269531 493.183594 565.964844 493.882812 C 565.660156 494.585938 565.375 495.292969 565.113281 496.011719 C 564.847656 496.730469 564.605469 497.453125 564.382812 498.183594 C 564.160156 498.914062 563.957031 499.652344 563.777344 500.394531 C 563.597656 501.136719 563.4375 501.886719 563.300781 502.636719 C 563.164062 503.386719 563.046875 504.144531 562.953125 504.902344 C 562.855469 505.660156 562.785156 506.421875 562.730469 507.183594 C 562.679688 507.945312 562.652344 508.710938 562.640625 509.472656 C 562.632812 510.238281 562.648438 511 562.683594 511.765625 C 562.71875 512.527344 562.777344 513.289062 562.855469 514.050781 C 562.933594 514.808594 563.035156 515.566406 563.15625 516.324219 C 563.277344 517.078125 563.421875 517.828125 563.585938 518.574219 C 563.75 519.320312 563.9375 520.0625 564.144531 520.796875 C 564.351562 521.53125 564.578125 522.261719 564.828125 522.984375 C 565.078125 523.707031 565.34375 524.421875 565.636719 525.128906 C 565.925781 525.835938 566.234375 526.535156 566.5625 527.226562 C 566.890625 527.914062 567.242188 528.59375 567.609375 529.265625 C 567.976562 529.9375 568.363281 530.59375 568.769531 531.242188 C 569.175781 531.890625 569.597656 532.527344 570.039062 533.152344 C 570.480469 533.773438 570.941406 534.386719 571.417969 534.984375 C 571.894531 535.582031 572.386719 536.164062 572.894531 536.734375 C 573.40625 537.304688 573.933594 537.859375 574.472656 538.398438 C 575.015625 538.9375 575.570312 539.464844 576.140625 539.972656 C 576.714844 540.480469 577.300781 540.972656 577.898438 541.445312 C 578.496094 541.921875 579.109375 542.378906 579.734375 542.820312 C 580.359375 543.257812 581 543.679688 581.648438 544.085938 C 582.296875 544.488281 582.957031 544.875 583.628906 545.238281 C 584.300781 545.605469 584.980469 545.953125 585.671875 546.28125 C 586.363281 546.609375 587.0625 546.914062 587.773438 547.203125 C 588.480469 547.492188 589.195312 547.757812 589.921875 548.003906 C 651.851562 566.039062 684.527344 483.484375 655.894531 434.667969 C 645.9375 448.660156 632.867188 453.789062 615.285156 448.816406 C 616.527344 444.773438 617.617188 441.351562 618.863281 437.777344 C 624.464844 419.429688 618.242188 403.417969 600.347656 396.578125 C 576.851562 387.558594 552.265625 383.671875 527.214844 387.25 C 492.515625 392.691406 475.863281 429.226562 486.601562 462.03125 C 452.835938 457.210938 446.921875 427.515625 471.820312 388.335938 C 443.03125 396.578125 415.023438 397.507812 385.925781 385.382812 C 397.90625 413.988281 396.664062 441.664062 389.039062 471.667969 C 406.464844 458.296875 422.960938 448.039062 443.5 457.988281 C 454.703125 463.429688 460.617188 471.980469 462.636719 484.574219 C 451.125 484.574219 439.140625 482.550781 428.09375 484.882812 C 394.019531 492.5 377.679688 525.617188 392.304688 555.3125 C 402.730469 576.609375 431.671875 582.984375 445.367188 565.882812 C 450.191406 559.820312 451.746094 549.871094 451.746094 541.785156 C 451.746094 533.703125 446.144531 530.125 438.207031 531.679688 C 425.292969 534.011719 427.9375 545.671875 430.429688 555.777344 C 420.160156 556.554688 413.777344 552.046875 409.890625 543.960938 C 406 535.878906 404.910156 522.972656 412.691406 513.957031 C 424.203125 500.585938 439.453125 498.253906 455.636719 502.453125 C 485.199219 510.382812 481.933594 536.8125 481.3125 561.996094 C 551.953125 561.53125 530.167969 642.375 597.699219 645.171875 C 594.589844 668.960938 567.980469 675.179688 541.839844 659.164062 C 541.21875 659.632812 540.285156 659.789062 539.972656 660.410156 C 505.738281 731.769531 430.273438 671.449219 394.484375 726.484375 C 383.125 700.054688 402.265625 678.132812 440.855469 670.671875 C 439.609375 659.941406 437.121094 649.058594 437.585938 638.332031 C 438.675781 603.351562 484.734375 598.375 493.757812 631.492188 C 495.160156 637.246094 490.023438 644.707031 487.847656 651.390625 L 484.113281 650.460938 C 481.15625 629.625 460.617188 635.066406 459.527344 652.324219 C 460.460938 666.628906 476.488281 673.625 491.113281 667.40625 C 509.164062 659.632812 518.1875 642.0625 513.675781 623.5625 C 509.164062 605.0625 490.023438 590.914062 469.640625 592.933594 C 442.875 596.042969 417.359375 612.058594 390.90625 594.644531 C 390.90625 618.121094 400.085938 623.875 429.804688 620.765625 C 434.164062 640.042969 423.425781 648.59375 393.550781 649.835938 C 390.59375 661.808594 389.660156 680.929688 374.878906 683.261719 C 360.097656 680.621094 359.785156 661.496094 357.140625 649.214844 C 328.199219 649.527344 318.707031 642.839844 318.707031 620.609375 C 330.6875 620.765625 344.378906 626.828125 353.5625 614.703125 C 357.296875 609.726562 358.539062 602.730469 359.785156 595.890625 C 340.179688 606.460938 321.507812 602.417969 302.058594 597.597656 C 290.230469 594.644531 277.160156 593.246094 265.179688 594.957031 C 248.21875 597.445312 236.082031 613.769531 234.992188 630.871094 C 233.902344 647.972656 243.863281 661.03125 259.265625 667.5625 C 274.671875 674.089844 287.742188 667.09375 290.230469 654.035156 C 291.632812 646.882812 291.007812 639.730469 282.140625 637.867188 C 273.269531 636 268.445312 638.332031 266.890625 647.351562 C 266.519531 648.363281 266 649.296875 265.335938 650.148438 C 252.730469 641.441406 251.796875 626.363281 263.3125 616.566406 C 272.492188 608.480469 283.539062 608.328125 294.589844 611.746094 C 295.796875 612.074219 296.972656 612.496094 298.113281 613.015625 C 299.253906 613.53125 300.34375 614.140625 301.386719 614.832031 C 302.429688 615.527344 303.40625 616.300781 304.324219 617.15625 C 305.242188 618.007812 306.082031 618.929688 306.851562 619.917969 C 307.617188 620.910156 308.300781 621.953125 308.898438 623.054688 C 309.496094 624.152344 310 625.292969 310.414062 626.476562 C 310.824219 627.65625 311.140625 628.863281 311.355469 630.097656 C 311.574219 631.332031 311.6875 632.574219 311.703125 633.824219 C 312.171875 645.796875 310.304688 657.921875 309.371094 671.292969 C 341.578125 673.15625 361.496094 690.570312 357.453125 725.707031 C 317.929688 671.757812 240.75 732.082031 209.941406 658.234375 C 196.402344 667.40625 182.242188 672.535156 167.617188 665.382812 C 160.769531 661.964844 155.636719 654.96875 147.234375 647.503906 C 154.078125 645.640625 156.722656 644.707031 159.523438 644.242188 C 178.976562 641.441406 193.601562 632.113281 202.316406 614.078125 C 216.164062 587.960938 233.4375 560.285156 267.980469 562.152344 C 267.511719 538.519531 265.023438 512.089844 291.941406 503.230469 C 307.660156 498.097656 322.90625 499.964844 335.667969 511.9375 C 343.601562 519.554688 345.625 532.148438 340.957031 542.71875 C 336.289062 553.289062 331.15625 555.15625 319.640625 555.3125 C 320.417969 552.203125 321.039062 549.402344 321.664062 546.605469 C 323.21875 538.988281 319.796875 532.769531 312.636719 532.300781 C 284.316406 535.410156 297.078125 572.414062 321.039062 575.054688 C 345.003906 577.699219 365.230469 556.867188 363.054688 529.816406 C 360.875 502.761719 330.53125 478.199219 300.65625 483.171875 C 296.144531 483.949219 291.941406 484.882812 287.273438 485.972656 C 292.410156 451.300781 324.621094 445.082031 361.496094 472.136719 C 352.78125 442.90625 351.382812 415.078125 364.296875 385.695312 C 335.199219 396.886719 307.660156 396.730469 276.539062 387.714844 C 291.941406 406.0625 300.8125 423.472656 290.542969 444.460938 C 285.5625 454.410156 276.226562 460.164062 264.402344 461.875 C 264.867188 453.324219 266.269531 444.617188 265.800781 436.066406 C 263.933594 406.371094 243.238281 386.003906 213.519531 386.625 C 195.195312 387.0625 177.09375 389.289062 159.214844 393.3125 C 129.027344 399.839844 124.671875 420.984375 134.164062 447.726562 C 119.070312 453.945312 108.175781 450.523438 92.925781 433.578125 C 89.660156 444.460938 85.769531 453.789062 84.214844 463.429688 C 78.769531 495.300781 93.550781 529.039062 118.601562 543.960938 C 159.371094 568.214844 208.539062 524.375 178.351562 485.039062 C 168.550781 472.914062 145.210938 474.46875 142.253906 489.859375 C 140.386719 499.03125 145.210938 503.230469 160.457031 505.71875 C 161.238281 514.734375 156.257812 520.488281 148.945312 524.375 C 110.199219 544.585938 76.121094 470.734375 151.277344 450.835938 C 149.566406 437.308594 148.011719 424.09375 146.453125 410.878906 L 150.65625 407.925781 L 181.152344 428.136719 C 203.871094 405.75 221.921875 402.019531 241.683594 418.34375 C 204.339844 435.753906 200.449219 465.761719 210.097656 501.363281 C 240.28125 479.132812 260.355469 478.664062 270.625 500.121094 C 268.601562 500.898438 266.734375 502.140625 264.558594 502.296875 C 249.929688 503.695312 238.882812 511.3125 230.011719 522.507812 C 223.789062 530.125 217.566406 538.054688 211.964844 546.140625 C 198.269531 566.039062 178.976562 575.988281 155.324219 578.789062 C 153.125 579.089844 150.945312 579.503906 148.789062 580.03125 C 164.347656 603.972656 163.414062 627.292969 136.652344 641.753906 C 130.273438 553.136719 41.890625 568.214844 54.960938 448.347656 C 24.929688 435.753906 16.992188 420.054688 30.375 400.773438 C 59.523438 417.152344 79.910156 414.144531 91.527344 391.757812 C 80.167969 392.378906 67.71875 391.914062 57.605469 386.472656 C 53.25 383.984375 47.957031 378.074219 48.269531 373.878906 C 48.582031 369.679688 54.027344 363.460938 58.539062 362.0625 C 68.808594 358.640625 79.703125 357.710938 90.28125 355.84375 C 83.746094 335.476562 56.515625 331.125 31.152344 348.070312 C 15.75 331.125 26.019531 309.980469 54.183594 301.117188 C 54.183594 292.101562 54.339844 283.082031 54.183594 274.066406 C 53.40625 242.972656 65.074219 216.855469 85.925781 194.464844 C 91.683594 188.246094 97.597656 182.183594 103.664062 176.429688 C 122.179688 159.019531 133.230469 138.03125 135.097656 112.378906 C 135.273438 110.957031 135.691406 109.609375 136.339844 108.335938 C 159.371094 114.554688 164.039062 135.855469 149.722656 168.65625 C 173.996094 172.234375 196.714844 180.007812 211.03125 201.617188 C 225.34375 223.226562 240.128906 247.480469 270.003906 246.546875 C 265.023438 270.335938 236.859375 270.335938 211.652344 247.949219 C 196.558594 275.621094 205.738281 302.363281 239.972656 331.125 C 224.410156 347.449219 202.160156 343.09375 180.375 319.308594 C 175.863281 323.507812 171.507812 328.324219 166.527344 331.902344 C 161.546875 335.476562 155.636719 337.34375 146.453125 341.695312 C 148.167969 325.371094 149.722656 311.847656 151.277344 297.699219 C 136.03125 293.964844 121.714844 287.125 112.222656 272.976562 C 102.730469 258.832031 105.6875 237.375 119.535156 226.804688 C 127.472656 220.742188 136.183594 219.03125 145.519531 222.917969 C 154.859375 226.804688 160.460938 231.777344 160.613281 242.507812 C 159.300781 243.230469 157.902344 243.699219 156.414062 243.90625 C 148.167969 244.371094 141.785156 247.171875 142.097656 256.652344 C 142.410156 266.136719 148.632812 270.800781 157.660156 271.890625 C 176.953125 274.222656 192.667969 250.433594 186.289062 228.667969 C 178.507812 202.082031 146.921875 189.957031 120.9375 203.636719 C 85.304688 222.449219 71.921875 275.933594 94.171875 313.710938 C 104.285156 300.960938 116.890625 295.210938 134.164062 299.875 C 132.917969 304.695312 131.515625 309.203125 130.429688 313.867188 C 126.382812 331.28125 132.917969 345.738281 149.253906 352.113281 C 173.375 361.597656 198.894531 365.328125 224.566406 361.597656 C 257.867188 356.933594 272.027344 320.550781 263.777344 287.28125 C 297.078125 290.546875 303.457031 322.261719 277.9375 360.664062 C 306.726562 352.421875 334.265625 350.867188 363.832031 363.773438 C 352.316406 334.390625 351.851562 306.558594 362.273438 275.777344 C 344.226562 290.390625 327.265625 300.960938 306.101562 290.703125 C 295.210938 285.414062 288.675781 276.398438 286.808594 264.117188 C 299.410156 264.117188 311.859375 266.292969 323.21875 263.648438 C 358.695312 255.410156 374.257812 217.007812 354.804688 188.714844 C 341.734375 169.589844 314.351562 167.414062 302.523438 185.449219 C 298.632812 191.046875 297.542969 199.597656 297.855469 206.746094 C 298.167969 213.898438 304.234375 218.875 312.636719 216.855469 C 325.085938 213.746094 322.441406 203.792969 319.484375 194 C 329.132812 191.199219 335.199219 196.332031 339.246094 203.328125 C 345.160156 213.121094 345.625 224.003906 338.46875 233.488281 C 328.507812 246.859375 314.195312 249.503906 298.476562 247.171875 C 282.761719 244.839844 272.960938 236.132812 269.847656 221.363281 C 267.511719 210.636719 267.824219 199.441406 266.890625 188.089844 C 266.734375 188.089844 266.269531 187.160156 265.644531 187.160156 C 237.480469 186.847656 220.675781 169.125 209.164062 146.738281 C 197.648438 124.347656 181.621094 103.671875 151.589844 104.136719 C 157.035156 79.261719 181.933594 73.511719 208.539062 89.679688 C 209.164062 89.210938 210.40625 88.589844 210.71875 87.8125 C 243.394531 18.007812 320.730469 76.621094 355.429688 22.515625 C 366.320312 49.878906 347.183594 71.644531 308.746094 77.863281 C 309.992188 88.589844 312.328125 99.316406 312.171875 110.046875 C 311.859375 133.210938 290.386719 145.960938 269.226562 136.320312 C 253.042969 128.859375 250.707031 110.046875 265.335938 98.230469 C 266.425781 100.71875 266.578125 104.292969 268.292969 105.226562 C 272.335938 107.871094 277.78125 111.445312 281.671875 110.511719 C 285.5625 109.578125 289.921875 103.671875 290.386719 99.628906 C 291.941406 85.171875 276.847656 75.6875 261.601562 80.507812 C 246.351562 85.324219 234.371094 101.027344 234.835938 116.730469 C 235.304688 132.433594 248.0625 151.554688 264.867188 153.886719 C 271.253906 154.671875 277.652344 154.824219 284.066406 154.355469 C 290.480469 153.882812 296.789062 152.796875 302.992188 151.089844 C 322.128906 146.269531 340.335938 142.382812 358.386719 153.886719 C 361.03125 132.121094 349.515625 124.816406 319.640625 128.390625 C 315.90625 107.871094 330.6875 96.984375 357.453125 100.25 C 358.851562 92.167969 359.164062 83.617188 362.273438 76.464844 C 364.296875 71.644531 370.675781 65.738281 375.035156 65.738281 C 379.390625 65.738281 385.769531 71.644531 387.949219 76.464844 C 390.128906 81.285156 391.371094 91.699219 393.085938 100.25 C 404.289062 98.386719 417.046875 97.296875 425.292969 108.492188 C 429.339844 113.621094 430.273438 120.929688 433.074219 128.546875 C 400.242188 124.972656 391.683594 130.257812 390.59375 154.820312 C 422.335938 132.746094 452.214844 161.351562 485.046875 154.042969 C 520.523438 147.515625 526.28125 91.390625 489.089844 81.4375 C 482.246094 79.574219 472.597656 80.660156 466.996094 84.546875 C 461.394531 88.433594 460.304688 96.675781 459.992188 103.207031 C 459.992188 105.847656 468.085938 111.445312 471.507812 110.824219 C 474.929688 110.203125 481.3125 104.449219 487.066406 100.25 C 497.027344 107.558594 498.425781 122.640625 487.222656 132.277344 C 476.019531 141.917969 466.996094 140.363281 455.949219 137.097656 C 444.898438 133.832031 438.675781 126.058594 438.207031 115.488281 C 437.742188 104.914062 439.609375 90.613281 440.386719 78.019531 C 401.019531 68.691406 384.835938 50.5 394.019531 21.894531 C 432.453125 78.328125 503.25 15.832031 541.375 89.523438 C 569.382812 73.976562 592.097656 79.105469 598.011719 102.429688 C 597.699219 102.738281 597.078125 103.671875 596.613281 103.671875 C 570.78125 105.539062 553.820312 119.21875 543.085938 142.539062 C 539.195312 151.402344 532.503906 159.019531 526.433594 166.949219 C 515.542969 181.40625 499.984375 186.691406 481.621094 186.847656 C 481.777344 209.703125 485.355469 235.511719 459.683594 244.839844 C 444.589844 250.589844 429.496094 249.347656 416.425781 238.929688 C 415.316406 238.019531 414.289062 237.027344 413.335938 235.953125 C 412.382812 234.878906 411.523438 233.738281 410.75 232.53125 C 409.980469 231.324219 409.304688 230.0625 408.734375 228.746094 C 408.160156 227.433594 407.691406 226.082031 407.332031 224.695312 C 406.96875 223.308594 406.71875 221.898438 406.578125 220.472656 C 406.441406 219.046875 406.414062 217.617188 406.496094 216.1875 C 406.582031 214.753906 406.78125 213.339844 407.085938 211.9375 C 407.394531 210.539062 407.808594 209.171875 408.332031 207.835938 C 412.066406 197.886719 418.136719 193.6875 429.960938 193.222656 C 428.5625 202.859375 425.292969 215.144531 438.363281 217.164062 C 446.300781 218.5625 450.5 213.898438 452.367188 206.902344 C 456.726562 190.734375 443.03125 174.097656 425.292969 173.320312 C 399.464844 172.390625 380.949219 200.375 388.726562 228.359375 C 396.507812 256.34375 431.363281 272.199219 462.015625 263.496094 C 460.617188 295.675781 427.785156 302.671875 391.0625 279.351562 C 392.304688 293.1875 394.796875 306.871094 394.484375 320.398438 C 394.171875 333.921875 391.0625 347.449219 388.882812 362.0625 C 415.492188 351.644531 443.34375 351.644531 472.128906 360.972656 C 446.921875 321.019531 452.835938 291.167969 483.332031 287.4375 C 484.734375 301.117188 484.113281 315.421875 488 328.324219 C 494.847656 351.023438 511.808594 362.996094 535.304688 362.21875 C 554.371094 361.714844 573.199219 359.328125 591.789062 355.066406 C 622.597656 347.757812 625.085938 327.546875 615.441406 299.875 Z M 615.441406 299.875 " fill-opacity="1" fill-rule="nonzero"/></svg>